<svg xmlns="http://www.w3.org/2000/svg" viewBox="0 0 33.61 35.98"><defs><style>.cls-1{fill:#1d1d1b;}</style></defs><g id="Capa_2" data-name="Capa 2"><g id="Modo_de_aislamiento" data-name="Modo de aislamiento"><path class="cls-1" d="M21.48,26.79a10.81,10.81,0,0,0-10.61-12.4A3.6,3.6,0,1,1,13.9,9a3.47,3.47,0,0,0,3,1.82h.47a3.43,3.43,0,0,0,3.07-5,10.8,10.8,0,1,0-9.67,15.75,3.6,3.6,0,1,1-3,5.42,3.45,3.45,0,0,0-2.95-1.82H4.27A3.42,3.42,0,0,0,1.2,30.14a10.8,10.8,0,0,0,20.28-3.35Z"/><path class="cls-1" d="M23.07,21.59h7.12a3.42,3.42,0,0,0,3.42-3.42v-.35a3.43,3.43,0,0,0-3.42-3.43H17.67A12.85,12.85,0,0,1,23.07,21.59Z"/><path class="cls-1" d="M17.66,0A12.82,12.82,0,0,1,23,7.2h7.15a3.43,3.43,0,0,0,3.42-3.43V3.42A3.42,3.42,0,0,0,30.19,0Z"/><path class="cls-1" d="M17.66,36H30.19a3.42,3.42,0,0,0,3.42-3.42v-.35a3.42,3.42,0,0,0-3.42-3.42H23A12.72,12.72,0,0,1,17.66,36Z"/></g></g></svg>